<?xml version="1.0" encoding="UTF-8"?>
<svg xmlns="http://www.w3.org/2000/svg" viewBox="0 0 1200 480" role="img" aria-label="Pensamiento Sistémico">
  <title>Pensamiento Sistémico</title>
  <defs>
    <linearGradient id="bg" x1="0" y1="0" x2="1" y2="1"><stop offset="0" stop-color="#082f25"/><stop offset="0.58" stop-color="#146B52"/><stop offset="1" stop-color="#1E8560"/></linearGradient>
    <radialGradient id="glow"><stop offset="0" stop-color="#F7C475" stop-opacity=".28"/><stop offset="1" stop-color="#F7C475" stop-opacity="0"/></radialGradient>
    <pattern id="dots" width="32" height="32" patternUnits="userSpaceOnUse"><circle cx="2" cy="2" r="2" fill="#C8EDE2" opacity=".14"/></pattern>
  </defs>
  <rect width="1200" height="480" rx="34" fill="url(#bg)"/>
  <rect width="1200" height="480" rx="34" fill="url(#dots)"/>
  <circle cx="931" cy="142" r="89" fill="url(#glow)"/>
  <circle cx="1040" cy="390" r="220" fill="none" stroke="#F7C475" stroke-opacity=".18" stroke-width="3"/>
  <path d="M730 410c110-160 255-242 450-255" fill="none" stroke="#C8EDE2" stroke-opacity=".18" stroke-width="4"/>
  <g transform="translate(170 120) scale(1.12)"><g fill="none" stroke="#F7C475" stroke-width="9" stroke-linecap="round" stroke-linejoin="round"><circle cx="120" cy="120" r="27" fill="rgba(247,196,117,.18)"/><circle cx="52" cy="55" r="20"/><circle cx="188" cy="55" r="20"/><circle cx="52" cy="185" r="20"/><circle cx="188" cy="185" r="20"/><path d="m68 69 33 32M172 69l-33 32M68 171l33-32M172 171l-33-32" stroke="#fff"/></g></g>
  <g transform="translate(520 105)"><circle cx="120" cy="120" r="112" fill="rgba(255,255,255,.055)" stroke="#F7C475" stroke-opacity=".35" stroke-width="3"/><circle cx="120" cy="120" r="78" fill="none" stroke="#C8EDE2" stroke-opacity=".24" stroke-width="3" stroke-dasharray="8 12"/><g fill="none" stroke="#F7C475" stroke-width="9" stroke-linecap="round" stroke-linejoin="round"><circle cx="120" cy="120" r="27" fill="rgba(247,196,117,.18)"/><circle cx="52" cy="55" r="20"/><circle cx="188" cy="55" r="20"/><circle cx="52" cy="185" r="20"/><circle cx="188" cy="185" r="20"/><path d="m68 69 33 32M172 69l-33 32M68 171l33-32M172 171l-33-32" stroke="#fff"/></g></g>
  <path d="M70 420h1060" stroke="#F7C475" stroke-opacity=".45" stroke-width="3"/>
</svg>
